<?xml version="1.0" encoding="utf-8"?>
<!-- Generator: Adobe Illustrator 17.0.0, SVG Export Plug-In . SVG Version: 6.00 Build 0)  -->
<!DOCTYPE svg PUBLIC "-//W3C//DTD SVG 1.1//EN" "http://www.w3.org/Graphics/SVG/1.1/DTD/svg11.dtd">
<svg version="1.1" id="Layer_1" xmlns="http://www.w3.org/2000/svg" xmlns:xlink="http://www.w3.org/1999/xlink" x="0px" y="0px" viewBox="0 0 30 24" enable-background="new 0 0 645.698 136.753" xml:space="preserve">
  <path
        fill="#FF0000"
        d="M28.4,5.12c-0.34-1.24-1.31-2.2-2.55-2.52C23.62,2,14.68,2,14.68,2S5.75,2,3.52,2.6
            C2.29,2.93,1.33,3.89,1,5.12C0.59,7.39,0.39,9.69,0.4,12c-0.01,2.31,0.19,4.61,0.6,6.88c0.33,1.23,1.29,2.19,2.52,2.52
            C5.75,22,14.68,22,14.68,22s8.93,0,11.16-0.6c1.24-0.32,2.22-1.28,2.56-2.52c0.41-2.27,0.61-4.57,0.6-6.88
            C29.01,9.69,28.81,7.39,28.4,5.12z"
      ></path>
      <polygon
        fill="#FFFFFF"
        points="11.83,16.29 19.25,12 11.83,7.71"
      ></polygon>
</svg>